<svg width="50" height="50" viewBox="0 0 50 50" fill="none" xmlns="http://www.w3.org/2000/svg">
<path d="M36.8062 4.1665H13.1957C8.56655 4.1665 6.25195 6.4811 6.25195 11.1103V31.9436C6.25195 36.5728 8.56655 38.8874 13.1957 38.8874H16.3207C17.4145 38.8874 18.4437 39.4019 19.0978 40.2769L22.2228 44.4436C23.6124 46.2957 26.3895 46.2957 27.7791 44.4436L30.9041 40.2769C31.5603 39.4019 32.5895 38.8874 33.6812 38.8874H36.8062C41.4353 38.8874 43.7499 36.5728 43.7499 31.9436V11.1103C43.7499 6.4811 41.4353 4.1665 36.8062 4.1665ZM34.7625 21.7749C33.4687 28.4478 25.0228 32.2915 25.0228 32.2915C25.0228 32.2915 16.5771 28.4478 15.2834 21.7749C14.4896 17.6811 16.2229 13.5623 20.6354 13.5415C23.9208 13.5248 25.0228 16.8373 25.0228 16.8373C25.0228 16.8373 26.1248 13.5248 29.4102 13.5415C33.8311 13.5623 35.5562 17.6811 34.7625 21.7749Z" fill="#157AFE"/>
<rect x="13" y="9" width="25" height="25" fill="#157AFE"/>
<path d="M29.9939 30.7787C29.9026 32.5925 28.9051 33.5 27.0001 33.5H17.9999C15.9999 33.5 15 32.5 15 30.5V17.75C15 15.84 15.9124 14.8413 17.7374 14.7563C17.8224 14.7525 18.125 14.81 18.125 15.1463C18.125 15.4825 18.125 25.5 18.125 25.5C18.125 28.55 19.9499 30.375 22.9999 30.375C22.9999 30.375 29.2912 30.375 29.6249 30.375C29.9587 30.375 29.9976 30.6875 29.9939 30.7787ZM31.875 16.9375C29.25 16.9375 27.8125 15.5 27.8125 12.875V9.75H22.9999C20.9999 9.75 20 10.75 20 12.75V25.5C20 27.5 20.9999 28.5 22.9999 28.5H32.0001C34.0001 28.5 35 27.5 35 25.5V16.9375H31.875ZM29.6875 10.6875V12.875C29.6875 14.45 30.3 15.0625 31.875 15.0625H34.0625L29.6875 10.6875Z" fill="white"/>
</svg>
