<svg width="24" height="24" viewBox="0 0 24 24" fill="none" xmlns="http://www.w3.org/2000/svg">
<path d="M14.1641 19.751C14.2531 19.906 14.2521 20.098 14.1621 20.252C13.7061 21.033 12.898 21.5 12 21.5C11.102 21.5 10.294 21.033 9.83805 20.252C9.74805 20.098 9.74705 19.906 9.83605 19.751C9.92505 19.596 10.0901 19.5 10.2701 19.5H13.73C13.909 19.5 14.0741 19.596 14.1641 19.751ZM20.3911 17.688C20.3721 17.665 18.495 15.282 18.495 12.5V8.995C18.495 5.414 15.581 2.5 12 2.5C8.41905 2.5 5.50505 5.414 5.50505 8.995V12.5C5.50505 15.281 3.62905 17.664 3.60905 17.688C3.48905 17.838 3.46605 18.044 3.54905 18.217C3.63205 18.39 3.80705 18.5 3.99905 18.5H19.999C20.191 18.5 20.3661 18.39 20.4491 18.217C20.5341 18.043 20.5101 17.838 20.3911 17.688Z" fill="#ffffff"/>
</svg>
